<svg viewBox="0 0 110 90" xmlns="http://www.w3.org/2000/svg">
  <ellipse cx="55" cy="84" rx="38" ry="4" fill="#2B2320" opacity=".08"/>
  <path d="M22 72 Q10 64 7 50" fill="none" stroke="#2B2320" stroke-width="2.2" stroke-linecap="round"/>
  <circle cx="7" cy="48" r="3.4" fill="#E2622B"/>
  <rect x="24" y="66" width="54" height="8" rx="4" fill="#1F7A72"/>
  <circle cx="34" cy="78" r="6" fill="#2B2320"/><circle cx="34" cy="78" r="2.2" fill="#F7F0E1"/>
  <circle cx="68" cy="78" r="6" fill="#2B2320"/><circle cx="68" cy="78" r="2.2" fill="#F7F0E1"/>
  <path d="M34 52 L25 40 Q24 37 28 39 L38 47 Z" fill="#E8A33D"/>
  <ellipse cx="52" cy="54" rx="20" ry="13" fill="#E8A33D"/>
  <ellipse cx="49" cy="55" rx="9" ry="6" transform="rotate(-15 49 55)" fill="#C98E2F"/>
  <circle cx="68" cy="35" r="10" fill="#E8A33D"/>
  <path d="M62 30 A10 10 0 0 1 68 25" fill="none" stroke="#F6E7C6" stroke-width="3" stroke-linecap="round"/>
  <path d="M77 34 L86 37 L77 40 Z" fill="#E2622B"/>
  <circle cx="70" cy="33" r="1.8" fill="#2B2320"/><circle cx="70.6" cy="32.4" r=".6" fill="#F7F0E1"/>
</svg>
