<svg viewBox="0 0 110 90" xmlns="http://www.w3.org/2000/svg">
  <ellipse cx="55" cy="84" rx="26" ry="3.5" fill="#2B2320" opacity=".08"/>
  <path d="M27 18 L28.8 23.2 L34 25 L28.8 26.8 L27 32 L25.2 26.8 L20 25 L25.2 23.2 Z" fill="#E8A33D"/>
  <path d="M86 14 L87.8 20.2 L94 22 L87.8 23.8 L86 30 L84.2 23.8 L78 22 L84.2 20.2 Z" fill="#7FC4B8"/>
  <circle cx="55" cy="36" r="17" fill="#E98C6B"/>
  <path d="M38 36 A17 17 0 0 0 72 36 Z" fill="#C96A48" opacity=".3"/>
  <path d="M41 28 A17 17 0 0 1 50 20" fill="none" stroke="#F2A886" stroke-width="4" stroke-linecap="round"/>
  <rect x="51" y="51" width="8" height="24" rx="4" fill="#1F7A72"/>
  <circle cx="55" cy="78" r="6.5" fill="#E8A33D"/>
  <circle cx="52.8" cy="75.8" r="1.8" fill="#F6E7C6"/>
</svg>
