<svg viewBox="0 0 320 320" xmlns="http://www.w3.org/2000/svg">
  <path transform="translate(36,46)" d="M0 -10 L2.3 -2.3 L10 0 L2.3 2.3 L0 10 L-2.3 2.3 L-10 0 L-2.3 -2.3 Z" fill="#F2EDDF" opacity=".8"/>
  <path transform="translate(284,72)" d="M0 -8 L1.8 -1.8 L8 0 L1.8 1.8 L0 8 L-1.8 1.8 L-8 0 L-1.8 -1.8 Z" fill="#E8A33D"/>
  <path transform="translate(270,270)" d="M0 -9 L2 -2 L9 0 L2 2 L0 9 L-2 2 L-9 0 L-2 -2 Z" fill="#E98C6B"/>
  <circle cx="52" cy="252" r="3" fill="#F2EDDF" opacity=".6"/>
  <circle cx="292" cy="176" r="3" fill="#F2EDDF" opacity=".5"/>
  <g transform="translate(160,160)">
    <g>
      <ellipse rx="120" ry="44" fill="none" stroke="#F2EDDF" stroke-width="2" opacity=".32"/>
      <circle cx="92" cy="28" r="6.5" fill="#E2622B"/>
    </g>
    <g transform="rotate(60)">
      <ellipse rx="120" ry="44" fill="none" stroke="#F2EDDF" stroke-width="2" opacity=".32"/>
      <circle cx="-113" cy="-15" r="6.5" fill="#E8A33D"/>
    </g>
    <g transform="rotate(120)">
      <ellipse rx="120" ry="44" fill="none" stroke="#F2EDDF" stroke-width="2" opacity=".32"/>
      <circle cx="92" cy="-28" r="6.5" fill="#7FC4B8"/>
    </g>
    <circle r="13" fill="#E8A33D"/>
    <circle r="22" fill="#E8A33D" opacity=".22"/>
  </g>
</svg>
