<svg viewBox="0 0 110 100" xmlns="http://www.w3.org/2000/svg">
  <ellipse cx="56" cy="88" rx="34" ry="4" fill="#2B2320" opacity=".08"/>
  <circle cx="46" cy="28" r="7" fill="#E8A33D"/><circle cx="43.5" cy="25.5" r="2" fill="#F6E7C6"/>
  <rect x="56" y="20" width="15" height="13" rx="2" transform="rotate(6 63 26)" fill="#1F7A72"/>
  <circle cx="79" cy="28" r="5.5" fill="#E98C6B"/>
  <path d="M30 34 L88 34 L82 59 Q81 63 76 63 L38 63 Q33 63 32 59 Z" fill="#E2622B"/>
  <path d="M30 34 L88 34 L86.5 40 L31.5 40 Z" fill="#C94F1F"/>
  <line x1="46" y1="43" x2="47" y2="60" stroke="#F7F0E1" stroke-width="2" opacity=".55"/>
  <line x1="59" y1="43" x2="59" y2="60" stroke="#F7F0E1" stroke-width="2" opacity=".55"/>
  <line x1="72" y1="43" x2="71" y2="60" stroke="#F7F0E1" stroke-width="2" opacity=".55"/>
  <path d="M30 34 L18 15 L9 15" fill="none" stroke="#2B2320" stroke-width="5" stroke-linecap="round" stroke-linejoin="round"/>
  <circle cx="8" cy="15" r="3.2" fill="#2B2320"/>
  <path d="M37 63 L33 77 M75 63 L79 77" stroke="#2B2320" stroke-width="4" stroke-linecap="round"/>
  <circle cx="32" cy="81" r="6" fill="#2B2320"/><circle cx="32" cy="81" r="2.2" fill="#F7F0E1"/>
  <circle cx="80" cy="81" r="6" fill="#2B2320"/><circle cx="80" cy="81" r="2.2" fill="#F7F0E1"/>
</svg>
