<svg viewBox="0 0 110 70" xmlns="http://www.w3.org/2000/svg">
  <style>.bob{animation:bob 3.2s ease-in-out infinite}@keyframes bob{50%{transform:translateY(-4px)}}@media (prefers-reduced-motion:reduce){*{animation:none!important}}</style>
  <ellipse cx="55" cy="61" rx="42" ry="4" fill="#2B2320" opacity=".08"/>
  <g class="bob">
    <path d="M22 31 L14 15 Q13 12 17 14 L32 29 Z" fill="#E8A33D"/>
    <path d="M10 46 Q8 33 22 31 L36 29 Q42 17 57 16 Q70 15 76 27 L86 29 Q99 31 101 40 Q102 46 94 46 L16 46 Z" fill="#E2622B"/>
    <path d="M40 28 Q45 19 56 18 Q64 18 67 26 Z" fill="#F7F0E1"/>
    <path d="M16 41 L94 41 Q97 41 96 44 L95 46 L16 46 Z" fill="#C94F1F"/>
    <line x1="20" y1="38" x2="92" y2="38" stroke="#F7F0E1" stroke-width="2.5" stroke-linecap="round" opacity=".85"/>
    <path d="M78 21 Q84 23 88 28" fill="none" stroke="#F0A47E" stroke-width="3" stroke-linecap="round"/>
    <circle cx="99" cy="36" r="2.6" fill="#E8A33D"/>
    <circle cx="6" cy="40" r="2.4" fill="#6E6257" opacity=".45"/>
    <circle cx="2" cy="35" r="1.6" fill="#6E6257" opacity=".3"/>
  </g>
  <circle cx="30" cy="49" r="9" fill="#2B2320"/><circle cx="30" cy="49" r="4" fill="#F7F0E1"/><circle cx="30" cy="49" r="1.6" fill="#E2622B"/>
  <circle cx="78" cy="49" r="9" fill="#2B2320"/><circle cx="78" cy="49" r="4" fill="#F7F0E1"/><circle cx="78" cy="49" r="1.6" fill="#E2622B"/>
</svg>
