<svg viewBox="0 0 220 250"  xmlns="http://www.w3.org/2000/svg">
  <style>
    .tw{transform-box:fill-box;transform-origin:center;animation:tw 3.4s ease-in-out infinite;animation-delay:var(--d,0s)}
    @keyframes tw{50%{transform:scale(.55) rotate(18deg);opacity:.55}}
    @media (prefers-reduced-motion:reduce){*{animation:none!important}}
  </style>
  <g class="tw" style="--d:0s"><path transform="translate(110,18)" d="M0 -14 L3.1 -3.1 L14 0 L3.1 3.1 L0 14 L-3.1 3.1 L-14 0 L-3.1 -3.1 Z" fill="#E8A33D"/></g>
  <g class="tw" style="--d:.9s"><path transform="translate(76,30)" d="M0 -8 L1.8 -1.8 L8 0 L1.8 1.8 L0 8 L-1.8 1.8 L-8 0 L-1.8 -1.8 Z" fill="#E98C6B"/></g>
  <g class="tw" style="--d:1.7s"><path transform="translate(148,28)" d="M0 -9 L2 -2 L9 0 L2 2 L0 9 L-2 2 L-9 0 L-2 -2 Z" fill="#1F7A72"/></g>
  <g class="tw" style="--d:.4s"><path transform="translate(34,64)" d="M0 -11 L2.4 -2.4 L11 0 L2.4 2.4 L0 11 L-2.4 2.4 L-11 0 L-2.4 -2.4 Z" fill="#E2622B"/></g>
  <g class="tw" style="--d:2.3s"><path transform="translate(186,62)" d="M0 -11 L2.4 -2.4 L11 0 L2.4 2.4 L0 11 L-2.4 2.4 L-11 0 L-2.4 -2.4 Z" fill="#E8A33D"/></g>
  <g class="tw" style="--d:1.3s"><path transform="translate(20,112)" d="M0 -7 L1.6 -1.6 L7 0 L1.6 1.6 L0 7 L-1.6 1.6 L-7 0 L-1.6 -1.6 Z" fill="#E98C6B"/></g>
  <g class="tw" style="--d:2.9s"><path transform="translate(200,116)" d="M0 -7 L1.6 -1.6 L7 0 L1.6 1.6 L0 7 L-1.6 1.6 L-7 0 L-1.6 -1.6 Z" fill="#1F7A72"/></g>
  <circle cx="58" cy="44" r="3" fill="#1F7A72"/>
  <circle cx="162" cy="42" r="3" fill="#E98C6B"/>
  <circle cx="26" cy="160" r="2.5" fill="#E8A33D"/>
  <circle cx="196" cy="158" r="2.5" fill="#E2622B"/>
  <ellipse cx="110" cy="232" rx="42" ry="4.5" fill="#2B2320" opacity=".08"/>
  <g transform="translate(60,40)">
    <circle cx="50" cy="10" r="5" fill="#F7F0E1"/><circle cx="48.3" cy="8.3" r="1.6" fill="#FFFFFF" opacity=".8"/>
    <path d="M50 6 Q68 26 72 52 L28 52 Q32 26 50 6 Z" fill="#E2622B"/>
    <path d="M43 16 Q38 30 36 46" fill="none" stroke="#F0A47E" stroke-width="4" stroke-linecap="round"/>
    <rect x="28" y="52" width="44" height="12" fill="#F7F0E1"/>
    <rect x="28" y="52" width="5.5" height="6" fill="#E2622B"/><rect x="39" y="52" width="5.5" height="6" fill="#E2622B"/><rect x="50" y="52" width="5.5" height="6" fill="#E2622B"/><rect x="61" y="52" width="5.5" height="6" fill="#E2622B"/>
    <rect x="33.5" y="58" width="5.5" height="6" fill="#E2622B"/><rect x="44.5" y="58" width="5.5" height="6" fill="#E2622B"/><rect x="55.5" y="58" width="5.5" height="6" fill="#E2622B"/><rect x="66.5" y="58" width="5.5" height="6" fill="#E2622B"/>
    <path d="M30 116 Q9 140 6 188 L27 179 L30 142 Z" fill="#E2622B"/>
    <path d="M70 116 Q91 140 94 188 L73 179 L70 142 Z" fill="#E2622B"/>
    <path d="M28 64 L72 64 Q77 110 74 168 L26 168 Q23 110 28 64 Z" fill="#3A497D"/>
    <path d="M28 64 Q23.5 110 26.3 168 L37 168 Q34.5 110 37.5 64 Z" fill="#46578C"/>
    <path d="M25 132 Q13 152 11 182" fill="none" stroke="#C94F1F" stroke-width="3" stroke-linecap="round"/>
    <path d="M75 132 Q87 152 89 182" fill="none" stroke="#C94F1F" stroke-width="3" stroke-linecap="round"/>
    <path d="M26.5 112 L73.5 112" stroke="#2E3A66" stroke-width="1.5" opacity=".9"/>
    <circle cx="32" cy="108" r="1.3" fill="#8A97C4"/><circle cx="41" cy="108" r="1.3" fill="#8A97C4"/><circle cx="59" cy="108" r="1.3" fill="#8A97C4"/><circle cx="68" cy="108" r="1.3" fill="#8A97C4"/>
    <circle cx="50" cy="88" r="14" fill="#E8A33D"/>
    <circle cx="50" cy="88" r="9.5" fill="#CFE3DE"/>
    <path d="M44 84 A 8 8 0 0 1 50 80.5" fill="none" stroke="#F7F0E1" stroke-width="2.5" stroke-linecap="round"/>
    <circle cx="58.5" cy="96.5" r="1.3" fill="#C98E2F"/><circle cx="41.5" cy="96.5" r="1.3" fill="#C98E2F"/><circle cx="58.5" cy="79.5" r="1.3" fill="#C98E2F"/><circle cx="41.5" cy="79.5" r="1.3" fill="#C98E2F"/>
    <circle cx="50" cy="130" r="6.5" fill="#E8A33D"/><circle cx="50" cy="130" r="4" fill="#CFE3DE"/><circle cx="48.6" cy="128.6" r="1.2" fill="#F7F0E1"/>
    <rect x="47.5" y="145" width="5" height="14" rx="1.5" fill="#F7F0E1"/>
    <rect x="43" y="149.5" width="14" height="5" rx="1.5" fill="#F7F0E1"/>
    <path d="M26 168 L74 168 L78 178 L22 178 Z" fill="#2E3A66"/>
    <rect x="22" y="178" width="56" height="6" rx="3" fill="#2B2320"/>
  </g>
</svg>
