<svg viewBox="0 0 460 420" xmlns="http://www.w3.org/2000/svg">
  <style>
    .tw{transform-box:fill-box;transform-origin:center;animation:tw 3.4s ease-in-out infinite;animation-delay:var(--d,0s)}
    @keyframes tw{50%{transform:scale(.55) rotate(18deg);opacity:.55}}
    .bob{animation:bob 3.2s ease-in-out infinite}
    @keyframes bob{50%{transform:translateY(-4px)}}
    .waddle{transform-box:fill-box;transform-origin:50% 100%;animation:waddle 2.4s ease-in-out infinite}
    @keyframes waddle{25%{transform:rotate(-3deg)}75%{transform:rotate(3deg)}}
    @media (prefers-reduced-motion:reduce){*{animation:none!important}}
  </style>
<ellipse cx="235" cy="366" rx="208" ry="11" fill="#2B2320" opacity=".07"/>
  <g transform="translate(24,264) scale(.85)">
    <path d="M45 4 Q66 34 66 74 L66 104 L24 104 L24 74 Q24 34 45 4 Z" fill="#3A497D"/>
    <path d="M30 58 Q29 40 34 26" fill="none" stroke="#6C7DAE" stroke-width="5" stroke-linecap="round"/>
    <path d="M45 4 Q56 20 61 42 L29 42 Q34 20 45 4 Z" fill="#E2622B"/>
    <circle cx="45" cy="66" r="10" fill="#F7F0E1" stroke="#E8A33D" stroke-width="4"/>
    <path d="M24 78 L6 108 L24 104 Z" fill="#E2622B"/>
    <path d="M66 78 L84 108 L66 104 Z" fill="#E2622B"/>
  </g>
  <g transform="translate(352,267)">
    <rect x="26" y="80" width="58" height="9" rx="4.5" fill="#2B2320"/>
    <rect x="27" y="65" width="56" height="15" rx="7.5" fill="#1F7A72"/>
    <rect x="33" y="68" width="10" height="4" rx="2" fill="#7FC4B8"/>
    <rect x="33" y="52" width="44" height="14" rx="7" transform="rotate(-2 55 59)" fill="#E8A33D"/>
    <rect x="39" y="55" width="9" height="4" rx="2" transform="rotate(-2 55 59)" fill="#F6E7C6"/>
    <rect x="38" y="41" width="34" height="12" rx="6" transform="rotate(2 55 47)" fill="#E2622B"/>
    <rect x="43" y="43.5" width="8" height="3.5" rx="1.75" transform="rotate(2 55 47)" fill="#F0A47E"/>
    <rect x="43" y="31" width="24" height="11" rx="5.5" fill="#E98C6B"/>
    <rect x="47" y="33" width="7" height="3.5" rx="1.75" fill="#F7DFD2"/>
    <circle cx="55" cy="23" r="7" fill="#E2622B"/>
    <circle cx="52.5" cy="20.5" r="2" fill="#F0A47E"/>
  </g>
  <g transform="translate(200,290) scale(1.15)">
    <circle cx="-24" cy="-64" r="11" fill="#E98C6B"/><circle cx="-24" cy="-64" r="5" fill="#F2A886"/>
    <circle cx="24" cy="-64" r="11" fill="#E98C6B"/><circle cx="24" cy="-64" r="5" fill="#F2A886"/>
    <circle cx="0" cy="-42" r="30" fill="#E98C6B"/>
    <path d="M -22 -58 A 28 28 0 0 1 -6 -70" fill="none" stroke="#F2A886" stroke-width="5" stroke-linecap="round"/>
    <ellipse cx="-30" cy="2" rx="9" ry="17" transform="rotate(20 -30 2)" fill="#E98C6B"/>
    <ellipse cx="30" cy="2" rx="9" ry="17" transform="rotate(-20 30 2)" fill="#E98C6B"/>
    <ellipse cx="0" cy="8" rx="27" ry="30" fill="#E98C6B"/>
    <path d="M 18 -14 Q 30 8 16 30" fill="none" stroke="#C96A48" stroke-width="5" stroke-linecap="round" opacity=".7"/>
    <ellipse cx="0" cy="10" rx="15" ry="18" fill="#F7F0E1"/>
    <ellipse cx="0" cy="-32" rx="13" ry="10" fill="#F7F0E1"/>
    <path d="M -4 -37 L 4 -37 Q 6 -37 5 -35 Q 2 -31 0 -31 Q -2 -31 -5 -35 Q -6 -37 -4 -37 Z" fill="#2B2320"/>
    <path d="M 0 -31 L 0 -28 M -7 -28 Q 0 -20.5 7 -28" fill="none" stroke="#2B2320" stroke-width="2.2" stroke-linecap="round"/>
    <circle cx="-11" cy="-46" r="3.4" fill="#2B2320"/><circle cx="-9.9" cy="-47.1" r="1.1" fill="#F7F0E1"/>
    <circle cx="11" cy="-46" r="3.4" fill="#2B2320"/><circle cx="12.1" cy="-47.1" r="1.1" fill="#F7F0E1"/>
    <circle cx="-18" cy="42" r="11" fill="#E98C6B"/><circle cx="-18" cy="44" r="5.5" fill="#F7F0E1"/>
    <circle cx="18" cy="42" r="11" fill="#E98C6B"/><circle cx="18" cy="44" r="5.5" fill="#F7F0E1"/>
  </g>
  <g transform="translate(84,296)">
    <g class="bob">
      <path d="M22 31 L14 15 Q13 12 17 14 L32 29 Z" fill="#E8A33D"/>
      <path d="M10 46 Q8 33 22 31 L36 29 Q42 17 57 16 Q70 15 76 27 L86 29 Q99 31 101 40 Q102 46 94 46 L16 46 Z" fill="#E2622B"/>
      <path d="M40 28 Q45 19 56 18 Q64 18 67 26 Z" fill="#F7F0E1"/>
      <path d="M16 41 L94 41 Q97 41 96 44 L95 46 L16 46 Z" fill="#C94F1F"/>
      <line x1="20" y1="38" x2="92" y2="38" stroke="#F7F0E1" stroke-width="2.5" stroke-linecap="round" opacity=".85"/>
      <path d="M78 21 Q84 23 88 28" fill="none" stroke="#F0A47E" stroke-width="3" stroke-linecap="round"/>
      <circle cx="99" cy="36" r="2.6" fill="#E8A33D"/>
    </g>
    <circle cx="30" cy="49" r="9" fill="#2B2320"/><circle cx="30" cy="49" r="4" fill="#F7F0E1"/><circle cx="30" cy="49" r="1.6" fill="#E2622B"/>
    <circle cx="78" cy="49" r="9" fill="#2B2320"/><circle cx="78" cy="49" r="4" fill="#F7F0E1"/><circle cx="78" cy="49" r="1.6" fill="#E2622B"/>
  </g>
  <g transform="translate(268,272)">
    <rect x="24" y="66" width="54" height="8" rx="4" fill="#1F7A72"/>
    <circle cx="34" cy="78" r="6" fill="#2B2320"/><circle cx="34" cy="78" r="2.2" fill="#F7F0E1"/>
    <circle cx="68" cy="78" r="6" fill="#2B2320"/><circle cx="68" cy="78" r="2.2" fill="#F7F0E1"/>
    <g class="waddle">
      <path d="M34 52 L25 40 Q24 37 28 39 L38 47 Z" fill="#E8A33D"/>
      <ellipse cx="52" cy="54" rx="20" ry="13" fill="#E8A33D"/>
      <ellipse cx="49" cy="55" rx="9" ry="6" transform="rotate(-15 49 55)" fill="#C98E2F"/>
      <circle cx="68" cy="35" r="10" fill="#E8A33D"/>
      <path d="M62 30 A10 10 0 0 1 68 25" fill="none" stroke="#F6E7C6" stroke-width="3" stroke-linecap="round"/>
      <path d="M77 34 L86 37 L77 40 Z" fill="#E2622B"/>
      <circle cx="70" cy="33" r="1.8" fill="#2B2320"/><circle cx="70.6" cy="32.4" r=".6" fill="#F7F0E1"/>
    </g>
  </g>
  <g transform="translate(160,330) scale(1.08)">
    <circle r="26" fill="#E2622B"/>
    <path d="M -25.5 -5 Q 0 6 25.5 -5 L 25.5 4 Q 0 15 -25.5 4 Z" fill="#F7F0E1"/>
    <path d="M -24 9 Q 0 19 24 9" stroke="#E8A33D" stroke-width="3.5" fill="none" stroke-linecap="round"/>
    <path d="M -19 -14 A 25 25 0 0 1 -4 -24" stroke="#F0A47E" stroke-width="4.5" fill="none" stroke-linecap="round"/>
  </g>
  <g transform="translate(252,314) scale(1.05)">
    <g class="waddle">
      <circle cx="0" cy="-36" r="5" fill="#E8A33D"/>
      <rect x="-3.5" y="-34" width="7" height="10" fill="#175F59"/>
      <path d="M -30 -14 Q 0 -4 30 -14 L 4 34 Q 0 37 -4 34 Z" fill="#1F7A72"/>
      <ellipse cx="0" cy="-15" rx="30" ry="11" fill="#7FC4B8"/>
      <ellipse cx="0" cy="-15" rx="18" ry="6.5" fill="#1F7A72"/>
      <circle cx="0" cy="-15" r="3.5" fill="#E8A33D"/>
      <path d="M -22 0 Q 0 9 22 0 L 17 11 Q 0 18 -17 11 Z" fill="#E8A33D"/>
      <circle cx="0" cy="35" r="2.5" fill="#175F59"/>
    </g>
  </g>
</svg>
