<svg viewBox="540 0 640 640" xmlns="http://www.w3.org/2000/svg">
  <circle cx="860" cy="320" r="320" fill="#3A497D"/>
  <g transform="translate(0,640) scale(0.1,-0.1)">
    <path fill="#FFFDFD" d="M6398 4050 c-135 -23 -268 -90 -358 -180 -154 -154 -197 -329 -187 -755 6 -259 18 -328 83 -463 61 -127 198 -242 354 -295 65 -22 68 -22 884 -25 725 -2 825 -1 873 13 111 32 181 106 203 211 7 35 10 150 8 322 l-3 267 -29 58 c-19 41 -42 69 -75 92 -87 63 -104 65 -632 65 -472 0 -475 0 -519 -22 -115 -58 -123 -203 -17 -282 28 -20 40 -21 489 -24 l461 -3 -7 -61 c-3 -33 -6 -117 -6 -185 l0 -124 -742 3 -743 3 -63 29 c-96 44 -149 116 -172 231 -18 93 -9 525 13 590 19 59 73 126 128 161 90 57 -13 54 2069 54 1875 0 1916 -1 1958 -20 57 -26 81 -78 82 -177 0 -87 -22 -150 -57 -164 -14 -5 -334 -9 -757 -9 l-732 0 -44 -22 c-59 -31 -82 -65 -88 -131 -5 -65 12 -104 65 -144 l36 -28 762 -5 c614 -4 765 -8 778 -18 28 -24 40 -80 35 -172 -5 -97 -18 -128 -71 -160 -31 -19 -58 -20 -922 -20 -845 0 -892 -1 -931 -19 -103 -47 -131 -174 -56 -255 55 -58 13 -56 990 -56 570 0 919 4 953 10 119 23 227 95 293 195 67 100 79 150 80 325 0 174 -8 206 -69 290 l-36 49 35 46 c45 58 66 127 73 240 7 107 -14 230 -53 312 -54 113 -176 211 -303 245 -61 16 -204 17 -2026 16 -1078 0 -1981 -4 -2007 -8z"/>
  </g>
</svg>
