<svg viewBox="0 0 110 100" xmlns="http://www.w3.org/2000/svg">
  <ellipse cx="55" cy="92" rx="34" ry="4" fill="#2B2320" opacity=".08"/>
  <path d="M30 38 Q20 10 27 6 Q31 4 38 15 L47 29 Z" fill="#175F59"/>
  <path d="M31 30 Q27 15 30 12 Q34 14 40 24 Z" fill="#E98C6B"/>
  <path d="M80 38 Q90 10 83 6 Q79 4 72 15 L63 29 Z" fill="#175F59"/>
  <path d="M79 30 Q83 15 80 12 Q76 14 70 24 Z" fill="#E98C6B"/>
  <circle cx="55" cy="55" r="33" fill="#1F7A72"/>
  <path d="M26 42 A33 33 0 0 1 40 25" fill="none" stroke="#7FC4B8" stroke-width="5" stroke-linecap="round"/>
  <path d="M55 42 Q73 42 78 58 Q81 76 55 79 Q29 76 32 58 Q37 42 55 42 Z" fill="#F7F0E1"/>
  <circle cx="42" cy="47" r="4.2" fill="#2B2320"/><circle cx="43.4" cy="45.6" r="1.3" fill="#F7F0E1"/>
  <circle cx="68" cy="47" r="4.2" fill="#2B2320"/><circle cx="69.4" cy="45.6" r="1.3" fill="#F7F0E1"/>
  <path d="M50 58 L60 58 Q62 58 61 60 Q58 64 55 64 Q52 64 49 60 Q48 58 50 58 Z" fill="#2B2320"/>
  <path d="M55 64 Q55 68 49 69 M55 64 Q55 68 61 69" fill="none" stroke="#2B2320" stroke-width="2" stroke-linecap="round"/>
  <path d="M52 69 Q55 75 58 69 Q57 73 55 73 Q53 73 52 69 Z" fill="#E98C6B"/>
</svg>
