<svg viewBox="0 0 110 100" xmlns="http://www.w3.org/2000/svg">
  <ellipse cx="55" cy="87" rx="38" ry="4" fill="#2B2320" opacity=".08"/>
  <path d="M42 34 Q42 19 55 19 Q68 19 68 34" fill="none" stroke="#2B2320" stroke-width="5" stroke-linecap="round"/>
  <rect x="22" y="34" width="66" height="46" rx="11" fill="#E98C6B"/>
  <path d="M22 51 L88 51" stroke="#C96A48" stroke-width="2.5"/>
  <rect x="50" y="47" width="10" height="8" rx="2" fill="#F7F0E1"/>
  <path d="M28 43 Q28 39 33 38" fill="none" stroke="#F2A886" stroke-width="3.5" stroke-linecap="round"/>
  <circle cx="27" cy="75" r="1.6" fill="#2B2320" opacity=".3"/>
  <circle cx="83" cy="75" r="1.6" fill="#2B2320" opacity=".3"/>
  <circle cx="55" cy="65" r="12" fill="#F7F0E1"/>
  <path d="M52.5 58 L57.5 58 L57.5 62.5 L62 62.5 L62 67.5 L57.5 67.5 L57.5 72 L52.5 72 L52.5 67.5 L48 67.5 L48 62.5 L52.5 62.5 Z" fill="#E2622B"/>
  <path d="M91 24 L92.8 29.2 L98 31 L92.8 32.8 L91 38 L89.2 32.8 L84 31 L89.2 29.2 Z" fill="#E8A33D"/>
</svg>
