<svg viewBox="0 0 96 80" xmlns="http://www.w3.org/2000/svg">
  <line x1="48" y1="2" x2="48" y2="9" stroke="#2B2320" stroke-width="3" stroke-linecap="round"/>
  <path d="M12 26 Q30 12 48 15 Q68 18 84 13" fill="none" stroke="#2B2320" stroke-width="3" stroke-linecap="round"/>
  <line x1="13" y1="25" x2="13" y2="40" stroke="#2B2320" stroke-width="2"/>
  <line x1="48" y1="15" x2="48" y2="50" stroke="#2B2320" stroke-width="2"/>
  <line x1="83" y1="14" x2="83" y2="32" stroke="#2B2320" stroke-width="2"/>
  <circle cx="13" cy="48" r="8" fill="#1F7A72"/>
  <circle cx="10.5" cy="45.5" r="2.2" fill="#7FC4B8"/>
  <path d="M36 57 Q40 47 52 49 Q62 51 60 60 Q56 68 44 66 Q36 63 36 57 Z" fill="#E2622B"/>
  <circle cx="45" cy="53" r="2.4" fill="#F0A47E"/>
  <ellipse cx="83" cy="37" rx="7" ry="5" transform="rotate(-20 83 37)" fill="#E8A33D"/>
  <circle cx="80.5" cy="35" r="1.6" fill="#F7F0E1"/>
</svg>
