<svg viewBox="0 0 120 142" xmlns="http://www.w3.org/2000/svg">
  <ellipse cx="60" cy="136" rx="42" ry="4.5" fill="#2B2320" opacity=".08"/>
  <g transform="translate(60,80)">
    <circle cx="-24" cy="-64" r="11" fill="#E98C6B"/><circle cx="-24" cy="-64" r="5" fill="#F2A886"/>
    <circle cx="24" cy="-64" r="11" fill="#E98C6B"/><circle cx="24" cy="-64" r="5" fill="#F2A886"/>
    <circle cx="0" cy="-42" r="30" fill="#E98C6B"/>
    <path d="M -22 -58 A 28 28 0 0 1 -6 -70" fill="none" stroke="#F2A886" stroke-width="5" stroke-linecap="round"/>
    <ellipse cx="-30" cy="2" rx="9" ry="17" transform="rotate(20 -30 2)" fill="#E98C6B"/>
    <ellipse cx="30" cy="2" rx="9" ry="17" transform="rotate(-20 30 2)" fill="#E98C6B"/>
    <ellipse cx="0" cy="8" rx="27" ry="30" fill="#E98C6B"/>
    <path d="M 18 -14 Q 30 8 16 30" fill="none" stroke="#C96A48" stroke-width="5" stroke-linecap="round" opacity=".7"/>
    <ellipse cx="0" cy="10" rx="15" ry="18" fill="#F7F0E1"/>
    <ellipse cx="0" cy="-32" rx="13" ry="10" fill="#F7F0E1"/>
    <path d="M -4 -37 L 4 -37 Q 6 -37 5 -35 Q 2 -31 0 -31 Q -2 -31 -5 -35 Q -6 -37 -4 -37 Z" fill="#2B2320"/>
    <path d="M 0 -31 L 0 -28 M -7 -28 Q 0 -20.5 7 -28" fill="none" stroke="#2B2320" stroke-width="2.2" stroke-linecap="round"/>
    <circle cx="-11" cy="-46" r="3.4" fill="#2B2320"/><circle cx="-9.9" cy="-47.1" r="1.1" fill="#F7F0E1"/>
    <circle cx="11" cy="-46" r="3.4" fill="#2B2320"/><circle cx="12.1" cy="-47.1" r="1.1" fill="#F7F0E1"/>
    <circle cx="-18" cy="42" r="11" fill="#E98C6B"/><circle cx="-18" cy="44" r="5.5" fill="#F7F0E1"/>
    <circle cx="18" cy="42" r="11" fill="#E98C6B"/><circle cx="18" cy="44" r="5.5" fill="#F7F0E1"/>
  </g>
</svg>
